<svg xmlns="http://www.w3.org/2000/svg" viewBox="0 0 127.14 96.36"><path fill="currentColor" d="M107.7 8.07A105.15 105.15 0 0 0 81.47 0a72.06 72.06 0 0 0-3.36 6.83 97.68 97.68 0 0 0-29.11 0A72.37 72.37 0 0 0 45.64 0a105.89 105.89 0 0 0-26.25 8.09C2.79 32.65-1.71 56.6.54 80.21A105.73 105.73 0 0 0 32.71 96.36a77.7 77.7 0 0 0 6.89-11.11 68.42 68.42 0 0 1-10.85-5.18c.91-.66 1.8-1.34 2.66-2.05a75.57 75.57 0 0 0 64.32 0c.87.71 1.76 1.39 2.66 2.05a68.68 68.68 0 0 1-10.87 5.19 77.19 77.19 0 0 0 6.89 11.1 105.25 105.25 0 0 0 32.19-16.14c2.64-27.34-4.51-51.08-18.9-72.15ZM42.45 65.69c-6.28 0-11.45-5.78-11.45-12.89s5.06-12.9 11.45-12.9 11.57 5.84 11.45 12.9c0 7.11-5.06 12.89-11.45 12.89Zm42.24 0c-6.28 0-11.45-5.78-11.45-12.89s5.06-12.9 11.45-12.9 11.57 5.84 11.45 12.9c0 7.11-5.06 12.89-11.45 12.89Z"/></svg>