<?xml version="1.0" encoding="UTF-8"?>
<svg aria-labelledby="title desc" role="img" viewBox="0 0 640 420" xmlns="http://www.w3.org/2000/svg">
<title>マイクスタンドのオリジナルイメージ画像</title>
<desc>柚胡椒の秘密基地用に作成した、商品公式画像ではないカテゴリイメージです。</desc>
<defs>
<linearGradient id="c" y2="1">
<stop stop-color="#2b1152" offset="0"/>
<stop stop-color="#10051f" offset=".52"/>
<stop stop-color="#041a2e" offset="1"/>
</linearGradient>
<radialGradient id="b" cx=".52" cy=".4" r=".72">
<stop stop-color="#70d6ff" stop-opacity=".34" offset="0"/>
<stop stop-color="#a855f7" stop-opacity=".2" offset=".38"/>
<stop stop-opacity="0" offset="1"/>
</radialGradient>
<filter id="a" x="-20%" y="-20%" width="140%" height="140%">
<feGaussianBlur result="blur" stdDeviation="7"/>
<feMerge>
<feMergeNode in="blur"/>
<feMergeNode in="SourceGraphic"/>
</feMerge>
</filter>
</defs>
<rect width="640" height="420" rx="40" fill="url(#c)"/>
<rect x="20" y="20" width="600" height="380" rx="32" fill="url(#b)"/>
<path d="m58 328c102-68 182 68 288-6 84-58 138-20 236-72" fill="none" opacity=".55" stroke="#a855f7" stroke-width="5"/>
<path d="m58 92c92-46 167 20 255-16 95-38 157 0 269-32" fill="none" opacity=".45" stroke="#70d6ff" stroke-width="4"/>
<g filter="url(#a)">
<rect x="190" y="292" width="105" height="30" rx="15" fill="rgba(255,255,255,.15)" stroke="#d8f3ff" stroke-width="5"/>
<path d="m245 292 65-87 100-35" fill="none" stroke="#70d6ff" stroke-linecap="round" stroke-linejoin="round" stroke-width="13"/>
<circle cx="310" cy="205" r="20" fill="#1b0f2f" stroke="#ffd166" stroke-width="6"/>
<rect transform="rotate(18 425 181)" x="405" y="135" width="40" height="92" rx="20" fill="rgba(255,255,255,.16)" stroke="#d8f3ff" stroke-width="6"/>
<path d="m425 236q-35 20-70 0" fill="none" stroke="#a855f7" stroke-linecap="round" stroke-width="7"/>
</g>
<text x="320" y="374" fill="#d8f3ff" font-family="Arial, Helvetica, sans-serif" font-size="30" font-weight="900" letter-spacing="5" text-anchor="middle">ARM</text>
<text x="320" y="398" fill="#ffd166" font-family="Arial, Helvetica, sans-serif" font-size="13" font-weight="700" letter-spacing="2" opacity=".9" text-anchor="middle">ORIGINAL IMAGE</text>
</svg>
