<svg xmlns="http://www.w3.org/2000/svg" viewBox="0 0 640 420" role="img" aria-label="マウス">
  <rect width="640" height="420" rx="28" fill="#f8fafc"/>
  <rect x="18" y="18" width="604" height="384" rx="24" fill="#ffffff" stroke="#111827" stroke-width="6"/>
  <rect x="0" y="0" width="640" height="86" fill="#64748b"/>
  <text x="320" y="57" text-anchor="middle" font-family="system-ui,-apple-system,BlinkMacSystemFont,'Noto Sans JP',sans-serif" font-size="36" font-weight="900" fill="#ffffff">マウス</text>
  <g transform="translate(0,78)">

    <path d="M320 55 C395 55 452 122 452 215 C452 297 398 332 320 332 C242 332 188 297 188 215 C188 122 245 55 320 55 Z" fill="#e5e7eb" stroke="#111827" stroke-width="8"/>
    <line x1="320" y1="58" x2="320" y2="155" stroke="#111827" stroke-width="8"/>
    <rect x="305" y="112" width="30" height="58" rx="15" fill="#60a5fa" stroke="#111827" stroke-width="6"/>
    <path d="M188 210 H452" stroke="#111827" stroke-width="6"/>
    <text x="320" y="370" text-anchor="middle" font-family="system-ui,'Noto Sans JP',sans-serif" font-size="32" font-weight="900" fill="#111827">PC操作・ゲーム操作</text>

  </g>
  <rect x="62" y="332" width="516" height="50" rx="18" fill="#111827"/>
  <text x="320" y="366" text-anchor="middle" font-family="system-ui,-apple-system,BlinkMacSystemFont,'Noto Sans JP',sans-serif" font-size="26" font-weight="900" fill="#ffffff">PC操作・ゲーム操作</text>
</svg>
